<svg width="50" height="50" viewBox="0 0 50 50" fill="currentColor" xmlns="http://www.w3.org/2000/svg">
<path d="M25 22.9167C24.4475 22.9167 23.9176 23.1362 23.5269 23.5269C23.1362 23.9176 22.9167 24.4475 22.9167 25V31.25C22.9167 31.8026 23.1362 32.3325 23.5269 32.7232C23.9176 33.1139 24.4475 33.3334 25 33.3334C25.5526 33.3334 26.0825 33.1139 26.4732 32.7232C26.8639 32.3325 27.0834 31.8026 27.0834 31.25V25C27.0834 24.4475 26.8639 23.9176 26.4732 23.5269C26.0825 23.1362 25.5526 22.9167 25 22.9167ZM25 16.6667C24.588 16.6667 24.1852 16.7889 23.8426 17.0178C23.5 17.2467 23.233 17.5721 23.0753 17.9528C22.9176 18.3334 22.8763 18.7523 22.9567 19.1565C23.0371 19.5606 23.2355 19.9318 23.5269 20.2232C23.8182 20.5145 24.1895 20.7129 24.5936 20.7933C24.9977 20.8737 25.4166 20.8325 25.7973 20.6748C26.178 20.5171 26.5033 20.2501 26.7323 19.9075C26.9612 19.5649 27.0834 19.1621 27.0834 18.75C27.0834 18.1975 26.8639 17.6676 26.4732 17.2769C26.0825 16.8862 25.5526 16.6667 25 16.6667ZM25 4.16669C22.2642 4.16669 19.5551 4.70556 17.0275 5.75253C14.4998 6.7995 12.2032 8.33408 10.2686 10.2686C6.36163 14.1756 4.16669 19.4747 4.16669 25C4.14848 29.8107 5.81418 34.4761 8.87503 38.1875L4.70836 42.3542C4.41928 42.6472 4.22346 43.0192 4.14559 43.4233C4.06773 43.8275 4.11132 44.2456 4.27086 44.625C4.4439 44.9999 4.72441 45.3149 5.07679 45.53C5.42917 45.7451 5.83753 45.8507 6.25003 45.8334H25C30.5254 45.8334 35.8244 43.6384 39.7314 39.7314C43.6384 35.8244 45.8334 30.5254 45.8334 25C45.8334 19.4747 43.6384 14.1756 39.7314 10.2686C35.8244 6.36162 30.5254 4.16669 25 4.16669V4.16669ZM25 41.6667H11.2709L13.2084 39.7292C13.4052 39.5362 13.5618 39.3061 13.6691 39.0522C13.7764 38.7983 13.8322 38.5257 13.8334 38.25C13.8255 37.7005 13.6009 37.1763 13.2084 36.7917C10.4804 34.0668 8.78164 30.4803 8.40147 26.6433C8.02129 22.8064 8.98324 18.9563 11.1234 15.749C13.2636 12.5418 16.4496 10.1758 20.1386 9.05413C23.8276 7.93249 27.7914 8.12461 31.3546 9.59776C34.9179 11.0709 37.8601 13.7339 39.6801 17.1331C41.5001 20.5323 42.0852 24.4574 41.3357 28.2396C40.5862 32.0218 38.5486 35.4272 35.5699 37.8755C32.5912 40.3238 28.8558 41.6637 25 41.6667V41.6667Z" fill="#currentColor"/>
</svg>
