<svg width="40" height="40" viewBox="0 0 50 50" fill="none" xmlns="http://www.w3.org/2000/svg">
<path d="M41.5776 8.16044L41.6817 8.49378L42.8317 12.4979C42.9359 12.8609 42.9051 13.2493 42.745 13.5914C42.5849 13.9334 42.3064 14.2058 41.9609 14.3584L41.7609 14.4313L19.413 20.8375H42.663C43.0408 20.8382 43.4056 20.9757 43.6899 21.2247C43.9741 21.4737 44.1584 21.8172 44.2088 22.1917L44.2234 22.4V40.1063C44.2235 41.5652 43.667 42.9692 42.6674 44.0319C41.6678 45.0946 40.3004 45.7359 38.8442 45.825L38.4942 45.8354H12.4547C10.9957 45.8355 9.59173 45.279 8.52904 44.2794C7.46635 43.2798 6.82504 41.9125 6.73591 40.4563L6.7255 40.1042V22.6209L5.638 18.8271C5.23608 17.4246 5.38434 15.9217 6.05253 14.6248C6.72073 13.3279 7.85852 12.3347 9.23383 11.8479L9.56716 11.7396L34.5963 4.56253C35.9988 4.16061 37.5018 4.30887 38.7987 4.97706C40.0956 5.64526 41.0887 6.78305 41.5755 8.15836L41.5776 8.16044ZM41.0984 23.9625H9.8505V40.1063C9.8505 41.3646 10.7442 42.4146 11.9297 42.6563L12.188 42.6979L12.4547 42.7104H38.4963C39.1407 42.7102 39.7621 42.4711 40.2404 42.0394C40.7187 41.6076 41.0199 41.0139 41.0859 40.3729L41.0984 40.1063V23.9625ZM13.5422 13.8521L10.4255 14.7479C9.8065 14.9256 9.27526 15.3262 8.93436 15.8726C8.59347 16.4189 8.4671 17.0722 8.57966 17.7063L8.64216 17.9667L9.35883 20.4688L9.97341 20.2917L13.5422 13.8542V13.8521ZM23.4505 11.0125L17.7901 12.6354L14.2192 19.0729L19.8817 17.4521L23.4505 11.0125V11.0125ZM33.363 8.16878L27.7005 9.79378L24.1317 16.2313L29.7901 14.6104L33.363 8.16878V8.16878ZM37.2109 7.68336L34.0422 13.3917L39.3942 11.8563L38.6776 9.35628C38.5721 8.98629 38.3858 8.64431 38.1322 8.35502C37.8786 8.06572 37.5639 7.83632 37.2109 7.68336V7.68336Z" fill="white"/>
</svg>
