<svg width="40" height="40" viewBox="0 0 40 40" fill="currentColor" xmlns="http://www.w3.org/2000/svg">
<g clip-path="url(#clip0_29_24)">
<path d="M29.3551 25.86C31.7758 22.5567 32.8601 18.4612 32.3909 14.3929C31.9217 10.3245 29.9336 6.58335 26.8245 3.91783C23.7154 1.25231 19.7145 -0.140984 15.6222 0.0166989C11.5299 0.174382 7.64807 1.87141 4.75328 4.76828C1.85849 7.66514 0.164235 11.5482 0.0094801 15.6406C-0.145274 19.733 1.25088 23.7329 3.91863 26.8401C6.58637 29.9473 10.329 31.9327 14.3977 32.399C18.4663 32.8653 22.5611 31.7781 25.8626 29.355H25.8601C25.9351 29.455 26.0151 29.55 26.1051 29.6425L35.7301 39.2675C36.1989 39.7366 36.8348 40.0003 37.498 40.0005C38.1612 40.0007 38.7973 39.7375 39.2664 39.2688C39.7355 38.8 39.9991 38.1641 39.9994 37.5009C39.9996 36.8377 39.7364 36.2016 39.2676 35.7325L29.6426 26.1075C29.5532 26.017 29.4571 25.9335 29.3551 25.8575V25.86ZM30.0001 16.25C30.0001 18.0557 29.6445 19.8437 28.9535 21.5119C28.2625 23.1801 27.2496 24.6959 25.9728 25.9727C24.696 27.2495 23.1802 28.2623 21.512 28.9534C19.8438 29.6444 18.0558 30 16.2501 30C14.4444 30 12.6564 29.6444 10.9882 28.9534C9.31999 28.2623 7.8042 27.2495 6.52739 25.9727C5.25058 24.6959 4.23777 23.1801 3.54677 21.5119C2.85576 19.8437 2.50011 18.0557 2.50011 16.25C2.50011 12.6033 3.94877 9.10591 6.52739 6.52729C9.10602 3.94866 12.6034 2.50001 16.2501 2.50001C19.8968 2.50001 23.3942 3.94866 25.9728 6.52729C28.5515 9.10591 30.0001 12.6033 30.0001 16.25V16.25Z" fill="#currentColor"/>
</g>
<defs>
<clipPath id="clip0_29_24">
<rect width="40" height="40" fill="currentColor"/>
</clipPath>
</defs>
</svg>
