<svg width="40" height="40" viewBox="0 0 50 50" fill="currentColor" xmlns="http://www.w3.org/2000/svg">
<path fill-rule="evenodd" clip-rule="evenodd" d="M15.625 35.9375C15.625 35.5231 15.7896 35.1257 16.0826 34.8326C16.3757 34.5396 16.7731 34.375 17.1875 34.375H45.3125C45.7269 34.375 46.1243 34.5396 46.4174 34.8326C46.7104 35.1257 46.875 35.5231 46.875 35.9375C46.875 36.3519 46.7104 36.7493 46.4174 37.0424C46.1243 37.3354 45.7269 37.5 45.3125 37.5H17.1875C16.7731 37.5 16.3757 37.3354 16.0826 37.0424C15.7896 36.7493 15.625 36.3519 15.625 35.9375ZM15.625 23.4375C15.625 23.0231 15.7896 22.6257 16.0826 22.3326C16.3757 22.0396 16.7731 21.875 17.1875 21.875H45.3125C45.7269 21.875 46.1243 22.0396 46.4174 22.3326C46.7104 22.6257 46.875 23.0231 46.875 23.4375C46.875 23.8519 46.7104 24.2493 46.4174 24.5424C46.1243 24.8354 45.7269 25 45.3125 25H17.1875C16.7731 25 16.3757 24.8354 16.0826 24.5424C15.7896 24.2493 15.625 23.8519 15.625 23.4375ZM15.625 10.9375C15.625 10.5231 15.7896 10.1257 16.0826 9.83265C16.3757 9.53962 16.7731 9.375 17.1875 9.375H45.3125C45.7269 9.375 46.1243 9.53962 46.4174 9.83265C46.7104 10.1257 46.875 10.5231 46.875 10.9375C46.875 11.3519 46.7104 11.7493 46.4174 12.0424C46.1243 12.3354 45.7269 12.5 45.3125 12.5H17.1875C16.7731 12.5 16.3757 12.3354 16.0826 12.0424C15.7896 11.7493 15.625 11.3519 15.625 10.9375Z" fill="currentColor"/>
<path d="M7.00625 6.85623C7.05941 6.68392 7.16638 6.53317 7.31148 6.42609C7.45658 6.31901 7.63216 6.26123 7.81249 6.26123C7.99283 6.26123 8.16841 6.31901 8.31351 6.42609C8.45861 6.53317 8.56558 6.68392 8.61874 6.85623L9.12499 8.51248C9.23437 8.87186 9.56249 9.11873 9.93124 9.11873H11.6531C12.4625 9.11873 12.8094 10.1594 12.1656 10.6594L10.7031 11.7937C10.5649 11.9018 10.4628 12.0493 10.4104 12.2168C10.3579 12.3842 10.3576 12.5636 10.4094 12.7312L10.95 14.5094C11.1937 15.3094 10.2844 15.9531 9.62812 15.4469L8.325 14.4344C8.17849 14.3203 7.99815 14.2584 7.81249 14.2584C7.62684 14.2584 7.4465 14.3203 7.29999 14.4344L5.99687 15.4437C5.34062 15.9531 4.43437 15.3094 4.675 14.5094L5.21562 12.7281C5.26674 12.5609 5.26604 12.3822 5.21361 12.2154C5.16117 12.0486 5.05947 11.9016 4.92187 11.7937L3.45937 10.6594C2.81562 10.1594 3.1625 9.11873 3.97187 9.11873H5.69062C5.87279 9.11818 6.04992 9.05889 6.19573 8.94968C6.34153 8.84046 6.44823 8.68715 6.49999 8.51248L7.00625 6.85623ZM7.00625 19.3562C7.05941 19.1839 7.16638 19.0332 7.31148 18.9261C7.45658 18.819 7.63216 18.7612 7.81249 18.7612C7.99283 18.7612 8.16841 18.819 8.31351 18.9261C8.45861 19.0332 8.56558 19.1839 8.61874 19.3562L9.12499 21.0125C9.23437 21.3719 9.56249 21.6187 9.93124 21.6187H11.6531C12.4625 21.6187 12.8094 22.6594 12.1656 23.1594L10.7031 24.2937C10.5649 24.4018 10.4628 24.5494 10.4104 24.7168C10.3579 24.8842 10.3576 25.0636 10.4094 25.2312L10.95 27.0094C11.1937 27.8062 10.2844 28.4531 9.62812 27.9469L8.325 26.9344C8.17849 26.8203 7.99815 26.7584 7.81249 26.7584C7.62684 26.7584 7.4465 26.8203 7.29999 26.9344L5.99687 27.9437C5.34062 28.4531 4.43437 27.8094 4.675 27.0094L5.21562 25.2281C5.26674 25.0609 5.26604 24.8822 5.21361 24.7154C5.16117 24.5486 5.05947 24.4016 4.92187 24.2937L3.45937 23.1594C2.81562 22.6594 3.1625 21.6187 3.97187 21.6187H5.69062C5.87279 21.6182 6.04992 21.5589 6.19573 21.4497C6.34153 21.3405 6.44823 21.1871 6.49999 21.0125L7.00625 19.3562ZM7.00625 31.8562C7.05941 31.6839 7.16638 31.5332 7.31148 31.4261C7.45658 31.319 7.63216 31.2612 7.81249 31.2612C7.99283 31.2612 8.16841 31.319 8.31351 31.4261C8.45861 31.5332 8.56558 31.6839 8.61874 31.8562L9.12499 33.5125C9.23437 33.8719 9.56249 34.1187 9.93124 34.1187H11.6531C12.4625 34.1187 12.8094 35.1594 12.1656 35.6594L10.7031 36.7937C10.5649 36.9018 10.4628 37.0493 10.4104 37.2168C10.3579 37.3842 10.3576 37.5636 10.4094 37.7312L10.95 39.5094C11.1937 40.3062 10.2844 40.9531 9.62812 40.4469L8.325 39.4344C8.17849 39.3203 7.99815 39.2584 7.81249 39.2584C7.62684 39.2584 7.4465 39.3203 7.29999 39.4344L5.99687 40.4437C5.34062 40.9531 4.43437 40.3094 4.675 39.5094L5.21562 37.7281C5.26674 37.5609 5.26604 37.3822 5.21361 37.2154C5.16117 37.0486 5.05947 36.9016 4.92187 36.7937L3.45937 35.6594C2.81562 35.1594 3.1625 34.1187 3.97187 34.1187H5.69062C5.87279 34.1182 6.04992 34.0589 6.19573 33.9497C6.34153 33.8405 6.44823 33.6871 6.49999 33.5125L7.00625 31.8562Z" fill="currentColor"/>
</svg>
