<svg width="114" height="30" viewBox="0 0 114 30" fill="none" xmlns="http://www.w3.org/2000/svg">
<path fill-rule="evenodd" clip-rule="evenodd" d="M86.6824 0.786865H81.2535L73.2422 20.3323H72.9013L64.8899 0.786865H59.5462L71.087 29.7357H75.103L82.6314 10.9431H82.6335L86.6824 0.786865ZM82.8729 21.1442L88.8388 6.17933V29.8778H82.8729V21.1442ZM57.3047 29.8778V5.96567L63.2706 20.9305V29.8778H57.3047ZM0 29.8778V12.7874H6.15057V12.7897H17.983V17.8607H6.15057V29.8778H0ZM8.36685 5.85767H0V0.786865H19.2614V5.85789H8.36685V5.85767ZM29.549 0.786865V29.8778H23.3984V0.786865H29.549ZM34.6094 0.786865V29.8778H53.2315V24.8068H40.7599V0.786865H34.6094ZM93.9062 24.8069V29.8778H113.565V24.8068H102.294V24.8069H93.9062ZM93.9062 17.8594H102.294V17.8607H112.5V12.7897H100.057V12.7874H93.9062V17.8594ZM93.9062 5.85767H102.298V5.85789H113.509V0.786865H93.9062V5.85767Z" fill="#E1E1E1"/>
</svg>
