<svg width="138" height="31" viewBox="0 0 138 31" fill="none" xmlns="http://www.w3.org/2000/svg">
<path fill-rule="evenodd" clip-rule="evenodd" d="M16.7188 9.64201C16.6051 8.49618 16.1174 7.60603 15.2557 6.97156C14.3939 6.33709 13.2244 6.01985 11.7472 6.01985C10.7434 6.01985 9.89583 6.1619 9.20455 6.44599C8.51326 6.72061 7.98295 7.10413 7.61364 7.59656C7.25379 8.08898 7.07386 8.6477 7.07386 9.2727C7.05492 9.79353 7.16383 10.2481 7.40057 10.6363C7.64678 11.0246 7.98295 11.3608 8.40909 11.6449C8.83523 11.9195 9.32765 12.161 9.88636 12.3693C10.4451 12.5681 11.0417 12.7386 11.6761 12.8806L14.2898 13.5056C15.5587 13.7897 16.7235 14.1685 17.7841 14.642C18.8447 15.1155 19.7633 15.6979 20.5398 16.3892C21.3163 17.0805 21.9176 17.8949 22.3438 18.8324C22.7794 19.7699 23.0019 20.8447 23.0114 22.0568C23.0019 23.8371 22.5473 25.3806 21.6477 26.6875C20.7576 27.9848 19.4697 28.9933 17.7841 29.713C16.108 30.4233 14.0862 30.7784 11.7188 30.7784C9.37027 30.7784 7.32481 30.4185 5.58239 29.6988C3.84943 28.9791 2.49527 27.9138 1.51989 26.5028C0.553977 25.0824 0.0473485 23.3257 0 21.2329H5.9517C6.01799 22.2083 6.29735 23.0227 6.78977 23.6761C7.29167 24.32 7.95928 24.8077 8.79261 25.1392C9.63542 25.4611 10.5871 25.6221 11.6477 25.6221C12.6894 25.6221 13.5938 25.4706 14.3608 25.1676C15.1373 24.8646 15.7386 24.4431 16.1648 23.9034C16.5909 23.3636 16.804 22.7433 16.804 22.0426C16.804 21.3892 16.6098 20.8399 16.2216 20.3949C15.8428 19.9498 15.2841 19.571 14.5455 19.2585C13.8163 18.946 12.9214 18.6619 11.8608 18.4062L8.69318 17.6108C6.24053 17.0142 4.30398 16.0814 2.88352 14.8125C1.46307 13.5435 0.757576 11.8342 0.767046 9.68463C0.757576 7.92326 1.22633 6.38444 2.1733 5.06815C3.12973 3.75186 4.44129 2.7244 6.10795 1.98576C7.77462 1.24713 9.66856 0.877808 11.7898 0.877808C13.9489 0.877808 15.8333 1.24713 17.4432 1.98576C19.0625 2.7244 20.322 3.75186 21.2216 5.06815C22.1212 6.38444 22.5852 7.90906 22.6136 9.64201H16.7188ZM27.1484 30.3664V25.2969H34.9961V25.2954H46.8075V30.3664H27.1484ZM34.9961 18.3493H27.1484V13.2773H33.299V13.2784H45.7422V18.3494H34.9961V18.3493ZM33.299 6.34766H27.1484V1.27554H46.7507V6.34656H33.299V6.34766ZM51.6406 1.27554V30.3664H57.7912V20.0539H62.2809L67.7912 30.3664H74.581L68.4087 19.0648C68.4975 19.0263 68.5852 18.9867 68.6719 18.946C70.2533 18.2074 71.4607 17.1467 72.294 15.7642C73.1274 14.3721 73.544 12.7102 73.544 10.7784C73.544 8.85603 73.1321 7.18463 72.3082 5.76417C71.4938 4.33425 70.3054 3.23103 68.7429 2.45451C67.1899 1.66853 65.3149 1.27554 63.1179 1.27554H51.6406ZM57.7912 15.1108H61.9673C63.1416 15.1108 64.117 14.9498 64.8935 14.6278C65.67 14.3058 66.2476 13.8229 66.6264 13.1789C67.0147 12.535 67.2088 11.7348 67.2088 10.7784C67.2088 9.81247 67.0147 8.99807 66.6264 8.3352C66.2476 7.67232 65.6653 7.17042 64.8793 6.82951C64.1028 6.47913 63.1226 6.30395 61.9389 6.30395H57.7912V15.1108ZM84.0412 1.27554V30.3664H77.8906V1.27554H84.0412ZM89.1016 25.2969V30.3664H108.761V25.2954H96.6446V25.2969H89.1016ZM89.1016 18.3493H96.6446V18.3494H107.695V13.2784H95.2521V13.2773H89.1016V18.3493ZM89.1016 6.34766H95.2521V6.34656H108.704V1.27554H89.1016V6.34766ZM137.926 1.27554V30.3664H132.614L119.957 12.0568H119.744V30.3664H113.594V1.27554H118.991L131.548 19.571H131.804V1.27554H137.926Z" fill="#E1E1E1"/>
</svg>
