<svg width="136" height="30" viewBox="0 0 136 30" fill="none" xmlns="http://www.w3.org/2000/svg">
<path fill-rule="evenodd" clip-rule="evenodd" d="M15.2557 6.09375C16.1174 6.72822 16.6051 7.61837 16.7188 8.7642H22.6136C22.5852 7.03125 22.1212 5.50663 21.2216 4.19034C20.322 2.87405 19.0625 1.84659 17.4432 1.10795C15.8333 0.369318 13.9489 0 11.7898 0C9.66856 0 7.77462 0.369318 6.10795 1.10795C4.44129 1.84659 3.12973 2.87405 2.1733 4.19034C1.22633 5.50663 0.757576 7.04545 0.767046 8.80682C0.757576 10.9564 1.46307 12.6657 2.88352 13.9347C4.30398 15.2036 6.24053 16.1364 8.69318 16.733L11.8608 17.5284C12.9214 17.7841 13.8163 18.0682 14.5455 18.3807C15.2841 18.6932 15.8428 19.072 16.2216 19.517C16.6098 19.9621 16.804 20.5114 16.804 21.1648C16.804 21.8655 16.5909 22.4858 16.1648 23.0256C15.7386 23.5653 15.1373 23.9867 14.3608 24.2898C13.5938 24.5928 12.6894 24.7443 11.6477 24.7443C10.5871 24.7443 9.63542 24.5833 8.79261 24.2614C7.95928 23.9299 7.29167 23.4422 6.78977 22.7983C6.29735 22.1449 6.01799 21.3305 5.9517 20.3551H0C0.0473485 22.4479 0.553977 24.2045 1.51989 25.625C2.49527 27.036 3.84943 28.1013 5.58239 28.821C7.32481 29.5407 9.37027 29.9006 11.7188 29.9006C14.0862 29.9006 16.108 29.5455 17.7841 28.8352C19.4697 28.1155 20.7576 27.107 21.6477 25.8097C22.5473 24.5028 23.0019 22.9593 23.0114 21.179C23.0019 19.9669 22.7794 18.892 22.3438 17.9545C21.9176 17.017 21.3163 16.2027 20.5398 15.5114C19.7633 14.8201 18.8447 14.2377 17.7841 13.7642C16.7235 13.2907 15.5587 12.9119 14.2898 12.6278L11.6761 12.0028C11.0417 11.8608 10.4451 11.6903 9.88636 11.4915C9.32765 11.2831 8.83523 11.0417 8.40909 10.767C7.98295 10.483 7.64678 10.1468 7.40057 9.75852C7.16383 9.37027 7.05492 8.91572 7.07386 8.39489C7.07386 7.76989 7.25379 7.21117 7.61364 6.71875C7.98295 6.22633 8.51326 5.8428 9.20455 5.56818C9.89583 5.28409 10.7434 5.14205 11.7472 5.14205C13.2244 5.14205 14.3939 5.45928 15.2557 6.09375ZM51.2678 0.397727H45.1172V18.7642C45.1172 19.8722 44.871 20.857 44.3786 21.7188C43.8956 22.5805 43.209 23.2576 42.3189 23.75C41.4382 24.2424 40.4013 24.4886 39.2081 24.4886C38.0244 24.4886 36.9875 24.2424 36.0973 23.75C35.2071 23.2576 34.5159 22.5805 34.0234 21.7188C33.5405 20.857 33.299 19.8722 33.299 18.7642V0.397727H27.1484V19.2898C27.1484 21.411 27.6503 23.267 28.6541 24.858C29.6579 26.4489 31.0642 27.6894 32.8729 28.5795C34.6816 29.4602 36.7933 29.9006 39.2081 29.9006C41.6134 29.9006 43.7204 29.4602 45.5291 28.5795C47.3378 27.6894 48.7441 26.4489 49.7479 24.858C50.7611 23.267 51.2678 21.411 51.2678 19.2898V0.397727ZM81.9957 10.5824H75.7741C75.6605 9.77746 75.4285 9.0625 75.0781 8.4375C74.7277 7.80303 74.2779 7.26326 73.7287 6.81818C73.1795 6.37311 72.545 6.0322 71.8253 5.79545C71.1151 5.55871 70.3433 5.44034 69.5099 5.44034C68.0043 5.44034 66.6927 5.81439 65.5753 6.5625C64.4579 7.30114 63.5914 8.38068 62.9759 9.80114C62.3603 11.2121 62.0526 12.9261 62.0526 14.9432C62.0526 17.017 62.3603 18.7595 62.9759 20.1705C63.6009 21.5814 64.4721 22.6468 65.5895 23.3665C66.7069 24.0862 67.9995 24.446 69.4673 24.446C70.2912 24.446 71.0535 24.3371 71.7543 24.1193C72.4645 23.9015 73.0942 23.5843 73.6435 23.1676C74.1927 22.7415 74.6473 22.2254 75.0071 21.6193C75.3764 21.0133 75.6321 20.322 75.7741 19.5455L81.9957 19.5739C81.8348 20.9091 81.4323 22.197 80.7884 23.4375C80.1539 24.6686 79.2969 25.7718 78.2173 26.7472C77.1473 27.7131 75.8688 28.4801 74.3821 29.0483C72.9048 29.607 71.2334 29.8864 69.3679 29.8864C66.7732 29.8864 64.4531 29.2992 62.4077 28.125C60.3717 26.9508 58.7618 25.2509 57.5781 23.0256C56.4039 20.8002 55.8168 18.1061 55.8168 14.9432C55.8168 11.7708 56.4134 9.07197 57.6065 6.84659C58.7997 4.62121 60.419 2.92614 62.4645 1.76136C64.5099 0.587122 66.8111 0 69.3679 0C71.0535 0 72.616 0.236742 74.0554 0.710227C75.5043 1.18371 76.7874 1.875 77.9048 2.78409C79.0223 3.68371 79.9313 4.78693 80.6321 6.09375C81.3423 7.40057 81.7969 8.89678 81.9957 10.5824ZM92.5568 0.397727H86.4062V29.4886H92.5568V17.4716H105.043V29.4886H111.179V0.397727H105.043V12.4006H92.5568V0.397727ZM116.25 0.397727H135.852V5.46875H124.459V5.46777H116.25V0.397727ZM116.25 12.3975H122.401V12.4006H134.844V17.4716H124.455V17.4695H116.25V12.3975ZM116.25 24.4171V29.4886H135.909V24.4176H122.401V24.4171H116.25Z" fill="#E1E1E1"/>
</svg>
