<svg width="179" height="30" viewBox="0 0 179 30" fill="none" xmlns="http://www.w3.org/2000/svg">
<path fill-rule="evenodd" clip-rule="evenodd" d="M117.717 10.5824H111.495C111.381 9.77746 111.149 9.0625 110.799 8.4375C110.449 7.80303 109.999 7.26326 109.45 6.81818C108.9 6.37311 108.266 6.0322 107.546 5.79545C106.836 5.55871 106.064 5.44034 105.231 5.44034C103.725 5.44034 102.414 5.81439 101.296 6.5625C100.179 7.30114 99.3123 8.38068 98.6967 9.80114C98.0812 11.2121 97.7734 12.9261 97.7734 14.9432C97.7734 17.017 98.0812 18.7595 98.6967 20.1705C99.3217 21.5814 100.193 22.6468 101.31 23.3665C102.428 24.0862 103.72 24.446 105.188 24.446C106.012 24.446 106.774 24.3371 107.475 24.1193C108.185 23.9015 108.815 23.5843 109.364 23.1676C109.914 22.7415 110.368 22.2254 110.728 21.6193C111.097 21.0133 111.353 20.322 111.495 19.5455L117.717 19.5739C117.556 20.9091 117.153 22.197 116.509 23.4375C115.875 24.6686 115.018 25.7718 113.938 26.7472C112.868 27.7131 111.59 28.4801 110.103 29.0483C108.626 29.607 106.954 29.8864 105.089 29.8864C102.494 29.8864 100.174 29.2992 98.1286 28.125C96.0926 26.9508 94.4827 25.2509 93.299 23.0256C92.1248 20.8002 91.5376 18.1061 91.5376 14.9432C91.5376 11.7708 92.1342 9.07197 93.3274 6.84659C94.5206 4.62121 96.1399 2.92614 98.1854 1.76136C100.231 0.587122 102.532 0 105.089 0C106.774 0 108.337 0.236742 109.776 0.710227C111.225 1.18371 112.508 1.875 113.626 2.78409C114.743 3.68371 115.652 4.78693 116.353 6.09375C117.063 7.40057 117.518 8.89678 117.717 10.5824ZM38.7145 29.4886H45.3054L52.6065 7.04545H52.8338L60.1207 29.4886H66.7116L56.6832 0.397727H48.7571L38.7145 29.4886ZM65.5504 0.397727V5.46875H74.4567V29.4886H80.5362V5.46875H89.4425V0.397727H65.5504ZM128.278 0.397727H122.127V29.4886H128.278V17.4716H140.763V29.4886H146.9V0.397727H140.763V12.4006H128.278V0.397727ZM156.985 29.4886H150.394L160.437 0.397727H168.363L178.391 29.4886H171.8L164.513 7.04545H164.286L156.985 29.4886Z" fill="#E1E1E1"/>
<path fill-rule="evenodd" clip-rule="evenodd" d="M25.4825 10.5237L22.8353 0.408569H17.4744L12.2217 18.8988L11.7727 20.6066H11.7366L9.21652 29.4778H14.3147L19.8389 10.4721H20.0661L23.0356 20.6624L25.4825 10.5237ZM26.3109 29.4778H31.5974L39.9192 0.408569H33.3263L26.3109 29.4778ZM6.7171 0.408569L9.13403 10.5489L6.0305 21.4739L0 0.408569H6.7171Z" fill="url(#paint0_linear_79_74)"/>
<defs>
<linearGradient id="paint0_linear_79_74" x1="19.9596" y1="0.408569" x2="19.9596" y2="29.4778" gradientUnits="userSpaceOnUse">
<stop stop-color="white"/>
<stop offset="1" stop-color="white" stop-opacity="0"/>
</linearGradient>
</defs>
</svg>
