<svg width="235" height="31" viewBox="0 0 235 31" fill="none" xmlns="http://www.w3.org/2000/svg">
<path fill-rule="evenodd" clip-rule="evenodd" d="M26.1165 13.699L22.8409 1.17617H17.0894L9.44263 30.2671H14.3182L19.8438 11.2472H20.071L23.7251 23.793L26.1165 13.699ZM26.3021 30.2671H31.6051L39.929 1.17617H33.2102L28.4993 20.9927L26.3021 30.2671ZM6.71875 1.17617L9.68291 13.6186L6.75135 24.7713L0 1.17617H6.71875ZM111.495 11.3608H117.717C117.518 9.67522 117.063 8.17901 116.353 6.87219C115.652 5.56537 114.743 4.46215 113.626 3.56253C112.508 2.65344 111.225 1.96215 109.776 1.48867C108.337 1.01518 106.774 0.778442 105.089 0.778442C102.532 0.778442 100.231 1.36556 98.1854 2.53981C96.1399 3.70458 94.5206 5.39965 93.3274 7.62503C92.1342 9.85041 91.5376 12.5493 91.5376 15.7216C91.5376 18.8845 92.1248 21.5786 93.299 23.804C94.4827 26.0294 96.0926 27.7292 98.1286 28.9034C100.174 30.0777 102.494 30.6648 105.089 30.6648C106.954 30.6648 108.626 30.3855 110.103 29.8267C111.59 29.2586 112.868 28.4915 113.938 27.5256C115.018 26.5502 115.875 25.447 116.509 24.2159C117.153 22.9754 117.556 21.6875 117.717 20.3523L111.495 20.3239C111.353 21.1004 111.097 21.7917 110.728 22.3978C110.368 23.0038 109.914 23.5199 109.364 23.9461C108.815 24.3627 108.185 24.68 107.475 24.8978C106.774 25.1156 106.012 25.2245 105.188 25.2245C103.72 25.2245 102.428 24.8646 101.31 24.1449C100.193 23.4252 99.3217 22.3599 98.6967 20.9489C98.0812 19.5379 97.7734 17.7955 97.7734 15.7216C97.7734 13.7046 98.0812 11.9906 98.6967 10.5796C99.3123 9.15913 100.179 8.07958 101.296 7.34094C102.414 6.59284 103.725 6.21878 105.231 6.21878C106.064 6.21878 106.836 6.33716 107.546 6.5739C108.266 6.81064 108.9 7.15155 109.45 7.59662C109.999 8.0417 110.449 8.58147 110.799 9.21594C111.149 9.84094 111.381 10.5559 111.495 11.3608ZM38.7145 30.2671H45.3054L52.6065 7.8239H52.8338L60.1207 30.2671H66.7116L56.6832 1.17617H48.7571L38.7145 30.2671ZM65.5504 6.24719V1.17617H89.4425V6.24719H80.5362V30.2671H74.4567V6.24719H65.5504ZM122.127 1.17617H128.278V13.179H140.763V1.17617H146.9V30.2671H140.763V18.25H128.278V30.2671H122.127V1.17617ZM158.121 1.17617H151.971V30.2671H170.593V25.1961H158.121V1.17617ZM180.817 30.2671H174.666V1.17617H180.817V30.2671ZM200.195 6.87219C201.057 7.50666 201.545 8.39681 201.658 9.54265H207.553C207.525 7.80969 207.061 6.28507 206.161 4.96878C205.262 3.6525 204.002 2.62503 202.383 1.8864C200.773 1.14776 198.888 0.778442 196.729 0.778442C194.608 0.778442 192.714 1.14776 191.048 1.8864C189.381 2.62503 188.069 3.6525 187.113 4.96878C186.166 6.28507 185.697 7.8239 185.707 9.58526C185.697 11.7349 186.403 13.4442 187.823 14.7131C189.244 15.982 191.18 16.9148 193.633 17.5114L196.8 18.3069C197.861 18.5625 198.756 18.8466 199.485 19.1591C200.224 19.4716 200.782 19.8504 201.161 20.2955C201.549 20.7406 201.744 21.2898 201.744 21.9432C201.744 22.644 201.531 23.2642 201.104 23.804C200.678 24.3438 200.077 24.7652 199.3 25.0682C198.533 25.3712 197.629 25.5228 196.587 25.5228C195.527 25.5228 194.575 25.3618 193.732 25.0398C192.899 24.7084 192.231 24.2207 191.729 23.5767C191.237 22.9233 190.958 22.1089 190.891 21.1336H184.94C184.987 23.2264 185.494 24.983 186.46 26.4034C187.435 27.8144 188.789 28.8798 190.522 29.5995C192.264 30.3192 194.31 30.679 196.658 30.679C199.026 30.679 201.048 30.3239 202.724 29.6137C204.409 28.894 205.697 27.8855 206.587 26.5881C207.487 25.2813 207.942 23.7377 207.951 21.9574C207.942 20.7453 207.719 19.6705 207.283 18.733C206.857 17.7955 206.256 16.9811 205.479 16.2898C204.703 15.5985 203.784 15.0161 202.724 14.5426C201.663 14.0692 200.498 13.6904 199.229 13.4063L196.616 12.7813C195.981 12.6392 195.385 12.4688 194.826 12.2699C194.267 12.0616 193.775 11.8201 193.349 11.5455C192.923 11.2614 192.586 10.9252 192.34 10.537C192.103 10.1487 191.995 9.69416 192.013 9.17333C192.013 8.54833 192.193 7.98962 192.553 7.49719C192.923 7.00477 193.453 6.62125 194.144 6.34662C194.835 6.06253 195.683 5.92049 196.687 5.92049C198.164 5.92049 199.334 6.23772 200.195 6.87219ZM210.98 6.24719V1.17617H234.872V6.24719H225.966V30.2671H219.886V6.24719H210.98Z" fill="#E1E1E1"/>
</svg>
