<svg width="202" height="31" viewBox="0 0 202 31" fill="none" xmlns="http://www.w3.org/2000/svg">
<path fill-rule="evenodd" clip-rule="evenodd" d="M10.6594 13.8476L7.57706 0.90908H0.858307L7.78188 25.1061L10.6594 13.8476ZM10.6597 30H15.1765L20.7021 10.9801H20.9293L24.6145 23.6324L27.0043 13.5447L23.6992 0.90908H18.0948L10.6597 30ZM32.4634 30H27.2166L34.1085 0.90908H40.7873L32.4634 30ZM112.353 11.0937H118.575C118.376 9.40813 117.922 7.91192 117.211 6.6051C116.511 5.29828 115.601 4.19506 114.484 3.29544C113.367 2.38635 112.083 1.69507 110.635 1.22158C109.195 0.748095 107.633 0.511353 105.947 0.511353C103.39 0.511353 101.089 1.09847 99.0437 2.27272C96.9982 3.43749 95.3789 5.13257 94.1857 7.35794C92.9925 9.58332 92.396 12.2822 92.396 15.4545C92.396 18.6174 92.9831 21.3115 94.1573 23.5369C95.341 25.7623 96.9509 27.4621 98.9869 28.6364C101.032 29.8106 103.352 30.3977 105.947 30.3977C107.813 30.3977 109.484 30.1184 110.961 29.5596C112.448 28.9915 113.726 28.2244 114.797 27.2585C115.876 26.2831 116.733 25.1799 117.368 23.9489C118.011 22.7083 118.414 21.4204 118.575 20.0852L112.353 20.0568C112.211 20.8333 111.956 21.5246 111.586 22.1307C111.226 22.7367 110.772 23.2528 110.223 23.679C109.673 24.0956 109.044 24.4129 108.333 24.6307C107.633 24.8485 106.87 24.9574 106.047 24.9574C104.579 24.9574 103.286 24.5975 102.169 23.8778C101.051 23.1581 100.18 22.0928 99.555 20.6818C98.9395 19.2708 98.6317 17.5284 98.6317 15.4545C98.6317 13.4375 98.9395 11.7235 99.555 10.3125C100.171 8.89204 101.037 7.81249 102.154 7.07385C103.272 6.32575 104.583 5.95169 106.089 5.95169C106.922 5.95169 107.694 6.07007 108.404 6.30681C109.124 6.54355 109.759 6.88446 110.308 7.32954C110.857 7.77461 111.307 8.31438 111.657 8.94885C112.008 9.57385 112.24 10.2888 112.353 11.0937ZM39.5728 30H46.1637L53.4648 7.55681H53.6921L60.979 30H67.57L57.5415 0.90908H49.6154L39.5728 30ZM66.4087 5.9801V0.90908H90.3008V5.9801H81.3945V30H75.315V5.9801H66.4087ZM122.985 0.90908H129.136V12.9119H141.622V0.90908H147.758V30H141.622V17.9829H129.136V30H122.985V0.90908ZM172.431 0.90908H152.829V5.98047H158.98V5.9801H172.431V0.90908ZM152.829 17.9851V12.9141H160.258V12.9119H171.423V17.9829H158.98V17.9851H152.829ZM152.829 24.9251V30H172.488V24.929H158.98V24.9251H152.829ZM187.634 30H177.321V0.90908H187.719C190.645 0.90908 193.164 1.49147 195.276 2.65624C197.388 3.81154 199.012 5.47347 200.148 7.64204C201.294 9.8106 201.867 12.4053 201.867 15.4261C201.867 18.4564 201.294 21.0606 200.148 23.2386C199.012 25.4167 197.378 27.0881 195.248 28.2528C193.126 29.4176 190.588 30 187.634 30ZM183.472 24.7301H187.378C189.196 24.7301 190.726 24.4081 191.966 23.7642C193.216 23.1108 194.154 22.1023 194.779 20.7386C195.413 19.3655 195.73 17.5947 195.73 15.4261C195.73 13.2765 195.413 11.5199 194.779 10.1562C194.154 8.7926 193.221 7.78882 191.98 7.14488C190.74 6.50094 189.211 6.17897 187.392 6.17897H183.472V24.7301Z" fill="#E1E1E1"/>
</svg>
